<svg xmlns="http://www.w3.org/2000/svg" xmlns:xlink="http://www.w3.org/1999/xlink"><symbol id="icon_facebook" viewBox="0 0 28 33">
<path d="M21.0001 2.74976H17.5001C15.953 2.74976 14.4693 3.45999 13.3753 4.72423C12.2813 5.98846 11.6667 7.70313 11.6667 9.49103V13.5358H8.16675V18.9288H11.6667V29.7148H16.3334V18.9288H19.8334L21.0001 13.5358H16.3334V9.49103C16.3334 9.13345 16.4563 8.79051 16.6751 8.53767C16.8939 8.28482 17.1907 8.14277 17.5001 8.14277H21.0001V2.74976Z" stroke="#666666" stroke-width="1.1" stroke-linecap="round" stroke-linejoin="round"/>
</symbol><symbol id="icon_instagram" viewBox="0 0 23 23">
<path d="M11.4775 0.0898438C13.3942 0.0898438 14.959 0.112305 16.1719 0.157227C17.2051 0.202148 18.126 0.381836 18.9346 0.696289C19.7132 0.995768 20.387 1.43001 20.9561 1.99902C21.5251 2.56803 21.9593 3.24186 22.2588 4.02051C22.5732 4.8291 22.7529 5.75 22.7979 6.7832C22.8428 7.99609 22.8652 9.56087 22.8652 11.4775C22.8652 13.3942 22.8428 14.959 22.7979 16.1719C22.7529 17.2051 22.5732 18.126 22.2588 18.9346C21.9593 19.7132 21.5251 20.387 20.9561 20.9561C20.387 21.5251 19.7132 21.9593 18.9346 22.2588C18.126 22.5732 17.2051 22.7529 16.1719 22.7978C14.959 22.8428 13.3942 22.8652 11.4775 22.8652C9.56087 22.8652 7.99609 22.8428 6.7832 22.7978C5.75 22.7529 4.8291 22.5732 4.02051 22.2588C3.24186 21.9593 2.56803 21.5251 1.99902 20.9561C1.43001 20.387 0.995768 19.7132 0.696289 18.9346C0.381836 18.126 0.202148 17.2051 0.157227 16.1719C0.112305 14.959 0.0898438 13.3942 0.0898438 11.4775C0.0898438 9.56087 0.112305 7.99609 0.157227 6.7832C0.202148 5.75 0.381836 4.8291 0.696289 4.02051C0.995768 3.24186 1.43001 2.56803 1.99902 1.99902C2.56803 1.43001 3.24186 0.995768 4.02051 0.696289C4.8291 0.381836 5.75 0.202148 6.7832 0.157227C7.99609 0.112305 9.56087 0.0898438 11.4775 0.0898438ZM11.4775 1.57227C9.486 1.57227 7.86133 1.59473 6.60352 1.63965C5.79492 1.6696 5.04622 1.81185 4.35742 2.06641C3.2793 2.51562 2.51562 3.2793 2.06641 4.35742C1.81185 5.04622 1.6696 5.79492 1.63965 6.60352C1.59473 7.86133 1.57227 9.486 1.57227 11.4775C1.57227 13.4691 1.59473 15.0937 1.63965 16.3516C1.6696 17.1602 1.81185 17.9089 2.06641 18.5977C2.51562 19.6758 3.2793 20.4395 4.35742 20.8887C5.04622 21.1432 5.79492 21.2855 6.60352 21.3154C7.86133 21.3603 9.486 21.3828 11.4775 21.3828C13.4691 21.3828 15.0938 21.3603 16.3516 21.3154C17.1602 21.2855 17.9089 21.1432 18.5977 20.8887C19.6758 20.4395 20.4395 19.6758 20.8887 18.5977C21.1432 17.9089 21.2855 17.1602 21.3154 16.3516C21.3604 15.0937 21.3828 13.4691 21.3828 11.4775C21.3828 9.486 21.3604 7.86133 21.3154 6.60352C21.2855 5.79492 21.1432 5.04622 20.8887 4.35742C20.4395 3.2793 19.6758 2.51562 18.5977 2.06641C17.9089 1.81185 17.1602 1.6696 16.3516 1.63965C15.0938 1.59473 13.4691 1.57227 11.4775 1.57227ZM11.4775 16.0371C12.7354 16.0371 13.8097 15.5916 14.7007 14.7007C15.5916 13.8097 16.0371 12.7354 16.0371 11.4775C16.0371 10.2197 15.5916 9.14534 14.7007 8.25439C13.8097 7.36344 12.7354 6.91797 11.4775 6.91797C10.2197 6.91797 9.14534 7.36344 8.25439 8.25439C7.36344 9.14534 6.91797 10.2197 6.91797 11.4775C6.91797 12.7354 7.36344 13.8097 8.25439 14.7007C9.14534 15.5916 10.2197 16.0371 11.4775 16.0371ZM11.4775 5.63769C13.0947 5.63769 14.4723 6.20671 15.6104 7.34473C16.7484 8.48275 17.3174 9.86035 17.3174 11.4775C17.3174 13.0947 16.7484 14.4723 15.6104 15.6104C14.4723 16.7484 13.0947 17.3174 11.4775 17.3174C9.86035 17.3174 8.48275 16.7484 7.34473 15.6104C6.20671 14.4723 5.6377 13.0947 5.6377 11.4775C5.6377 9.86035 6.20671 8.48275 7.34473 7.34473C8.48275 6.20671 9.86035 5.63769 11.4775 5.63769ZM18.9346 5.41309C18.9346 5.78743 18.7998 6.10563 18.5303 6.36768C18.2607 6.62972 17.9313 6.76074 17.542 6.76074C17.1676 6.76074 16.8494 6.62972 16.5874 6.36768C16.3254 6.10563 16.1943 5.78743 16.1943 5.41309C16.1943 5.02376 16.3254 4.69434 16.5874 4.4248C16.8494 4.15527 17.1676 4.02051 17.542 4.02051C17.9163 4.02051 18.242 4.15902 18.519 4.43603C18.7961 4.71305 18.9346 5.03874 18.9346 5.41309Z" fill="#666666"/>
</symbol><symbol id="icon_vkontakte" viewBox="0 0 30 22">
<path d="M0.0914307 5.48988C0.0914307 4.63485 0.643326 4.17381 1.74712 4.10674L6.00052 4.13189C6.28599 4.13189 6.47629 4.25763 6.57145 4.50911C7.00916 5.76651 7.4992 6.85206 8.04158 7.76577C8.58397 8.67948 9.29287 9.7315 10.1683 10.9218C10.2444 11.0727 10.3681 11.1482 10.5394 11.1482C10.6726 11.1482 10.7773 11.0895 10.8534 10.9721L10.939 10.6955L10.9676 6.34491C10.9676 6.04313 10.8867 5.84195 10.7249 5.74136C10.5632 5.64077 10.2634 5.56532 9.82573 5.51503C9.48318 5.46473 9.3119 5.28031 9.3119 4.96177C9.3119 4.89471 9.32141 4.84442 9.34044 4.81089C9.74009 3.72114 10.8819 3.17627 12.766 3.17627L14.3646 3.15112C15.0878 3.15112 15.6872 3.31039 16.163 3.62893C16.6388 3.94747 16.8767 4.45043 16.8767 5.13781V10.8464C17.0099 10.9302 17.1336 10.9721 17.2478 10.9721C17.5332 10.9721 17.7806 10.8212 17.99 10.5195C20.0834 7.93761 21.2157 6.21079 21.387 5.33899C21.387 5.32223 21.406 5.28031 21.4441 5.21325C21.5773 4.96177 21.7962 4.74383 22.1007 4.55941C22.4051 4.37499 22.6716 4.24925 22.9 4.18219C22.9761 4.14866 23.0617 4.13189 23.1569 4.13189H27.5816L27.867 4.15704C28.2476 4.15704 28.5426 4.31631 28.752 4.63485C28.8281 4.73544 28.8804 4.84442 28.909 4.96177C28.9375 5.07913 28.9565 5.19649 28.966 5.31384C28.9756 5.4312 28.9803 5.49826 28.9803 5.51503V5.69106C28.8471 6.37844 28.5093 7.11192 27.9669 7.89151C27.4245 8.67109 26.7347 9.51355 25.8973 10.4189C25.06 11.3242 24.5366 11.9194 24.3273 12.2044C24.156 12.4056 24.0704 12.59 24.0704 12.7576C24.0704 12.8918 24.1465 13.0426 24.2987 13.2103L28.4665 17.8375C28.6949 18.1058 28.809 18.3992 28.809 18.7177C28.809 19.1033 28.6378 19.4218 28.2952 19.6733C27.9527 19.9248 27.5435 20.0673 27.0677 20.1008L26.5824 20.126H22.2434C22.2244 20.126 22.1863 20.1302 22.1292 20.1385C22.0721 20.1469 22.034 20.1511 22.015 20.1511C21.5963 20.1511 21.2062 19.9919 20.8446 19.6733C20.7114 19.5392 19.8169 18.55 18.1613 16.7059C18.0661 16.5885 17.9329 16.4795 17.7616 16.3789C17.6855 16.6472 17.5856 17.0328 17.4619 17.5357C17.3382 18.0387 17.2478 18.3992 17.1907 18.6171L17.105 19.0446C16.9147 19.6314 16.5151 19.9835 15.9061 20.1008L15.5065 20.126H12.7089C11.1293 20.126 9.55454 19.4889 7.98449 18.2147C6.41444 16.9406 5.0014 15.2934 3.74536 13.2732C2.48932 11.2529 1.31892 8.90162 0.234162 6.21917C0.139008 6.00122 0.0914307 5.75813 0.0914307 5.48988ZM17.2478 12.0032C16.8481 12.0032 16.4865 11.9068 16.163 11.714C15.8395 11.5212 15.6777 11.2571 15.6777 10.9218V5.13781C15.6777 4.8025 15.5826 4.5636 15.3923 4.42109C15.202 4.27859 14.8689 4.20734 14.3931 4.20734L12.766 4.25763C11.9477 4.25763 11.3292 4.38337 10.9105 4.63485C11.7479 4.98692 12.1665 5.55694 12.1665 6.34491V10.7709C12.1285 11.1901 11.9382 11.538 11.5956 11.8146C11.253 12.0912 10.8724 12.2295 10.4538 12.2295C9.88282 12.2295 9.44511 11.9864 9.14062 11.5002C7.65621 9.52193 6.55242 7.64422 5.82924 5.8671L5.57233 5.21325L1.77566 5.18811C1.52826 5.18811 1.39029 5.20068 1.36174 5.22583C1.3332 5.25098 1.31892 5.32223 1.31892 5.43958C1.31892 5.59047 1.33795 5.74974 1.37602 5.9174L1.97549 7.32568C3.57408 10.9637 5.31065 13.8306 7.18519 15.9263C9.05974 18.0219 10.901 19.0698 12.7089 19.0698H15.5635C15.6777 19.0698 15.7634 19.0404 15.8205 18.9817C15.8776 18.9231 15.9251 18.8099 15.9632 18.6422L16.0203 18.3908L16.5627 16.1778C16.7149 15.876 16.8481 15.6748 16.9623 15.5742C17.1717 15.3898 17.4191 15.2976 17.7045 15.2976C18.1613 15.2976 18.6275 15.5407 19.1033 16.0269L21.5297 18.7428C21.682 18.9608 21.8437 19.0698 22.015 19.0698H26.7252C27.2961 19.0698 27.5816 18.944 27.5816 18.6925C27.5816 18.6087 27.553 18.5249 27.4959 18.4411L23.3567 13.8893C23.0332 13.5372 22.8714 13.16 22.8714 12.7576C22.8714 12.3553 23.0237 11.9697 23.3281 11.6008C23.5755 11.2655 24.0561 10.7081 24.7697 9.92849C25.4834 9.1489 26.1067 8.41961 26.6395 7.74062C27.1724 7.06163 27.5245 6.4455 27.6957 5.89225L27.7814 5.56532C27.7623 5.53179 27.7528 5.47731 27.7528 5.40186C27.7528 5.32642 27.7433 5.26355 27.7243 5.21325H23.2425C22.957 5.31384 22.7287 5.46473 22.5574 5.66592L22.3861 6.14373C21.9103 7.30053 20.6638 9.08603 18.6465 11.5002C18.2469 11.8355 17.7806 12.0032 17.2478 12.0032Z" fill="#666666"/>
</symbol><symbol id="logo_htmlacademy" viewBox="0 0 163 34">
<path d="M1.28125 21V9.54688H2.79688V14.25H8.75V9.54688H10.2656V21H8.75V15.6016H2.79688V21H1.28125ZM15.7109 21V10.8984H11.9375V9.54688H21.0156V10.8984H17.2266V21H15.7109ZM22.5312 21V9.54688H24.8125L27.5234 17.6562C27.7734 18.4115 27.9557 18.9766 28.0703 19.3516C28.2005 18.9349 28.4036 18.3229 28.6797 17.5156L31.4219 9.54688H33.4609V21H32V11.4141L28.6719 21H27.3047L23.9922 11.25V21H22.5312ZM35.8438 21V9.54688H37.3594V19.6484H43V21H35.8438ZM46.5234 21L50.9219 9.54688H52.5547L57.2422 21H55.5156L54.1797 17.5312H49.3906L48.1328 21H46.5234ZM49.8281 16.2969H53.7109L52.5156 13.125C52.151 12.1615 51.8802 11.3698 51.7031 10.75C51.5573 11.4844 51.3516 12.2135 51.0859 12.9375L49.8281 16.2969ZM63.6875 17.9609L65.0703 18.1406C64.9193 19.0938 64.5312 19.8411 63.9062 20.3828C63.2865 20.9193 62.5234 21.1875 61.6172 21.1875C60.4818 21.1875 59.5677 20.8177 58.875 20.0781C58.1875 19.3333 57.8438 18.2682 57.8438 16.8828C57.8438 15.987 57.9922 15.2031 58.2891 14.5312C58.5859 13.8594 59.0365 13.3568 59.6406 13.0234C60.25 12.6849 60.9115 12.5156 61.625 12.5156C62.526 12.5156 63.263 12.7448 63.8359 13.2031C64.4089 13.6562 64.776 14.3021 64.9375 15.1406L63.5703 15.3516C63.4401 14.7943 63.2083 14.375 62.875 14.0938C62.5469 13.8125 62.1484 13.6719 61.6797 13.6719C60.9714 13.6719 60.3958 13.9271 59.9531 14.4375C59.5104 14.9427 59.2891 15.7448 59.2891 16.8438C59.2891 17.9583 59.5026 18.7682 59.9297 19.2734C60.3568 19.7786 60.9141 20.0312 61.6016 20.0312C62.1536 20.0312 62.6146 19.862 62.9844 19.5234C63.3542 19.1849 63.5885 18.6641 63.6875 17.9609ZM71.6875 19.9766C71.1667 20.4193 70.6641 20.7318 70.1797 20.9141C69.7005 21.0964 69.1849 21.1875 68.6328 21.1875C67.7214 21.1875 67.0208 20.9661 66.5312 20.5234C66.0417 20.0755 65.7969 19.5052 65.7969 18.8125C65.7969 18.4062 65.888 18.0365 66.0703 17.7031C66.2578 17.3646 66.5 17.0938 66.7969 16.8906C67.099 16.6875 67.4375 16.5339 67.8125 16.4297C68.0885 16.3568 68.5052 16.2865 69.0625 16.2188C70.1979 16.0833 71.0339 15.9219 71.5703 15.7344C71.5755 15.5417 71.5781 15.4193 71.5781 15.3672C71.5781 14.7943 71.4453 14.3906 71.1797 14.1562C70.8203 13.8385 70.2865 13.6797 69.5781 13.6797C68.9167 13.6797 68.4271 13.7969 68.1094 14.0312C67.7969 14.2604 67.5651 14.6693 67.4141 15.2578L66.0391 15.0703C66.1641 14.4818 66.3698 14.0078 66.6562 13.6484C66.9427 13.2839 67.3568 13.0052 67.8984 12.8125C68.4401 12.6146 69.0677 12.5156 69.7812 12.5156C70.4896 12.5156 71.0651 12.599 71.5078 12.7656C71.9505 12.9323 72.276 13.1432 72.4844 13.3984C72.6927 13.6484 72.8385 13.9661 72.9219 14.3516C72.9688 14.5911 72.9922 15.0234 72.9922 15.6484V17.5234C72.9922 18.8307 73.0208 19.6589 73.0781 20.0078C73.1406 20.3516 73.2604 20.6823 73.4375 21H71.9688C71.8229 20.7083 71.7292 20.3672 71.6875 19.9766ZM71.5703 16.8359C71.0599 17.0443 70.2943 17.2214 69.2734 17.3672C68.6953 17.4505 68.2865 17.5443 68.0469 17.6484C67.8073 17.7526 67.6224 17.9062 67.4922 18.1094C67.362 18.3073 67.2969 18.5286 67.2969 18.7734C67.2969 19.1484 67.4375 19.4609 67.7188 19.7109C68.0052 19.9609 68.4219 20.0859 68.9688 20.0859C69.5104 20.0859 69.9922 19.9688 70.4141 19.7344C70.8359 19.4948 71.1458 19.1693 71.3438 18.7578C71.4948 18.4401 71.5703 17.9714 71.5703 17.3516V16.8359ZM80.5625 21V19.9531C80.0365 20.776 79.263 21.1875 78.2422 21.1875C77.5807 21.1875 76.9714 21.0052 76.4141 20.6406C75.862 20.276 75.4323 19.7682 75.125 19.1172C74.8229 18.4609 74.6719 17.7083 74.6719 16.8594C74.6719 16.0312 74.8099 15.2812 75.0859 14.6094C75.362 13.9323 75.776 13.4141 76.3281 13.0547C76.8802 12.6953 77.4974 12.5156 78.1797 12.5156C78.6797 12.5156 79.125 12.6224 79.5156 12.8359C79.9062 13.0443 80.224 13.3177 80.4688 13.6562V9.54688H81.8672V21H80.5625ZM76.1172 16.8594C76.1172 17.9219 76.3411 18.7161 76.7891 19.2422C77.237 19.7682 77.7656 20.0312 78.375 20.0312C78.9896 20.0312 79.5104 19.7812 79.9375 19.2812C80.3698 18.776 80.5859 18.0078 80.5859 16.9766C80.5859 15.8411 80.3672 15.0078 79.9297 14.4766C79.4922 13.9453 78.9531 13.6797 78.3125 13.6797C77.6875 13.6797 77.1641 13.9349 76.7422 14.4453C76.3255 14.9557 76.1172 15.7604 76.1172 16.8594ZM89.7656 18.3281L91.2188 18.5078C90.9896 19.3568 90.5651 20.0156 89.9453 20.4844C89.3255 20.9531 88.5339 21.1875 87.5703 21.1875C86.3568 21.1875 85.3932 20.8151 84.6797 20.0703C83.9714 19.3203 83.6172 18.2708 83.6172 16.9219C83.6172 15.526 83.9766 14.4427 84.6953 13.6719C85.4141 12.901 86.3464 12.5156 87.4922 12.5156C88.6016 12.5156 89.5078 12.8932 90.2109 13.6484C90.9141 14.4036 91.2656 15.4661 91.2656 16.8359C91.2656 16.9193 91.263 17.0443 91.2578 17.2109H85.0703C85.1224 18.1224 85.3802 18.8203 85.8438 19.3047C86.3073 19.7891 86.8854 20.0312 87.5781 20.0312C88.0938 20.0312 88.5339 19.8958 88.8984 19.625C89.263 19.3542 89.5521 18.9219 89.7656 18.3281ZM85.1484 16.0547H89.7812C89.7188 15.3568 89.5417 14.8333 89.25 14.4844C88.8021 13.9427 88.2214 13.6719 87.5078 13.6719C86.862 13.6719 86.3177 13.888 85.875 14.3203C85.4375 14.7526 85.1953 15.3307 85.1484 16.0547ZM92.9922 21V12.7031H94.25V13.8672C94.5104 13.4609 94.8568 13.1354 95.2891 12.8906C95.7214 12.6406 96.2135 12.5156 96.7656 12.5156C97.3802 12.5156 97.8828 12.6432 98.2734 12.8984C98.6693 13.1536 98.9479 13.5104 99.1094 13.9688C99.7656 13 100.62 12.5156 101.672 12.5156C102.495 12.5156 103.128 12.7448 103.57 13.2031C104.013 13.6562 104.234 14.3568 104.234 15.3047V21H102.836V15.7734C102.836 15.2109 102.789 14.8073 102.695 14.5625C102.607 14.3125 102.443 14.112 102.203 13.9609C101.964 13.8099 101.682 13.7344 101.359 13.7344C100.776 13.7344 100.292 13.9297 99.9062 14.3203C99.5208 14.7057 99.3281 15.3255 99.3281 16.1797V21H97.9219V15.6094C97.9219 14.9844 97.8073 14.5156 97.5781 14.2031C97.349 13.8906 96.974 13.7344 96.4531 13.7344C96.0573 13.7344 95.6901 13.8385 95.3516 14.0469C95.0182 14.2552 94.776 14.5599 94.625 14.9609C94.474 15.362 94.3984 15.9401 94.3984 16.6953V21H92.9922ZM106.258 24.1953L106.102 22.875C106.409 22.9583 106.677 23 106.906 23C107.219 23 107.469 22.9479 107.656 22.8438C107.844 22.7396 107.997 22.5938 108.117 22.4062C108.206 22.2656 108.349 21.9167 108.547 21.3594C108.573 21.2812 108.615 21.1667 108.672 21.0156L105.523 12.7031H107.039L108.766 17.5078C108.99 18.1172 109.19 18.7578 109.367 19.4297C109.529 18.7839 109.721 18.1536 109.945 17.5391L111.719 12.7031H113.125L109.969 21.1406C109.63 22.0521 109.367 22.6797 109.18 23.0234C108.93 23.487 108.643 23.8255 108.32 24.0391C107.997 24.2578 107.612 24.3672 107.164 24.3672C106.893 24.3672 106.591 24.3099 106.258 24.1953Z" fill="#444444"/>
<path d="M149.643 0.0157537L149.5 0L136 1.40733V26.0129L149.5 34L163 26.0129V1.40733L149.643 0.0157537ZM161.234 25.0151L149.5 31.9573L137.766 25.0151V14.9293L149.451 21.8451L149.47 23.0984L141.454 18.3548L141.443 19.5801L149.489 24.3885L149.509 25.675L141.464 20.9174L141.454 22.1427L149.5 26.9511L157.624 22.1182V20.8929V16.909L161.243 14.7595L161.234 25.0151ZM161.234 13.4519L158.015 15.3319L156.533 16.2071L149.467 12.0201L149.456 13.2454L155.496 16.818L155.443 16.8495L155.313 16.9247L154.454 17.4166L149.467 14.4689L149.456 15.6942L153.392 18.0222L152.459 18.6314L152.438 18.6436L149.467 16.902L149.456 18.1273L151.403 19.2615L149.416 20.4483L137.797 13.5762L149.435 6.61831L161.234 13.4519ZM161.234 12.2266L149.44 5.31075L137.766 12.2196V2.9897L149.5 1.76442L161.234 2.9897V12.2266Z" fill="#666666"/>
</symbol></svg>